<?xml version="1.0" encoding="utf-8"?>
<!-- Generator: Adobe Illustrator 24.3.0, SVG Export Plug-In . SVG Version: 6.00 Build 0)  -->
<svg version="1.1" id="Слой_1" xmlns="http://www.w3.org/2000/svg" xmlns:xlink="http://www.w3.org/1999/xlink" x="0px" y="0px"
	 viewBox="0 0 138.8 437.6" style="enable-background:new 0 0 138.8 437.6;" xml:space="preserve">
<style type="text/css">
	.st0{fill:#FFFFFF;stroke:#000000;stroke-miterlimit:10;}
	.st1{fill:none;stroke:#000000;stroke-width:0.25;stroke-miterlimit:10;}
	.st2{fill:#F3F5F9;}
	.st3{fill:none;stroke:#FAD383;stroke-width:0.75;stroke-miterlimit:10;}
</style>
<path class="st0" d="M-898,333.7"/>
<path class="st1" d="M-836.5,197.9"/>
<path class="st2" d="M-898,75.5c30.4,34.1,39.4,64.4,44.7,88.9c13.2,60.6-1.7,152.9-32.2,163.3c-4.2,1.5-12.5-3.3-12.5-3.3
	S-898,282.9-898,75.5z"/>
<path class="st2" d="M-851.9,85.8"/>
<path class="st3" d="M-896.9,64.3c10.3,8.6,20.2,18.7,29.7,30.2"/>
<path class="st3" d="M-837,187.8c1.9,33-0.9,60.2-7.6,90.5"/>
<path class="st2" d="M138.8,95.7C83.8,151.2,30,248.4,30,307.9c-0.1,64.9,58.8,102.8,108.8,112.7
	C138.8,372.7,138.8,145.7,138.8,95.7z"/>
<line class="st3" x1="129.6" y1="64.9" x2="80" y2="137.9"/>
<path class="st3" d="M8.8,314.4c-9.5,59.2,27.6,75.6,72.5,100"/>
</svg>
