<?xml version="1.0" encoding="utf-8"?>
<!-- Generator: Adobe Illustrator 24.3.0, SVG Export Plug-In . SVG Version: 6.00 Build 0)  -->
<svg version="1.1" id="Слой_1" xmlns="http://www.w3.org/2000/svg" xmlns:xlink="http://www.w3.org/1999/xlink" x="0px" y="0px"
	 viewBox="0 0 1036.8 359" style="enable-background:new 0 0 1036.8 359;" xml:space="preserve">
<style type="text/css">
	.st0{fill:#F3F5F9;}
	.st1{fill:none;stroke:#E62B2D;stroke-width:0.75;stroke-miterlimit:10;}
</style>
<path class="st0" d="M1036.8,176.5c-9.1-19-45.5-107.4-127.8-109.6c-130-3.5-162.1,69.7-251.1,66.8c-16.7-0.6-33.3,2-55.3-2.6
	c-31.3-6.4-50.9-26.2-59.5-39.8C523.9,61.1,502.5,25.9,424.6,12c-94.3-16.9-173,105.4-182.2,116.1c-63.4,73.2-134.5,71.8-189,83.5
	c-25.7,5.5-40.3,11.1-53.4,27.5v119.8h1036.8V176.5z"/>
<path class="st1" d="M41.7,207.8c29.7-3.6,36.5-9.5,66.2-12.9"/>
<path class="st1" d="M235.3,116.2c0,0-13.7,17.5-20.6,27.1C205.4,156.2,184,168,184,168"/>
<path class="st1" d="M348.2,5.7c0,0-17.6,7.6-33.7,21.8C302,38.7,277,67.1,277,67.1"/>
<path class="st1" d="M470.6,14.1c0,0,28.2,17,43.1,29.5c14.8,12.5,30.6,32.1,30.6,32.1"/>
<path class="st1" d="M593.6,120.2c0,0,12.3,6.8,21.6,7.9c17.2,2,34.3-0.9,34.3-0.9"/>
<path class="st1" d="M796.6,74.2c0,0-9.2,4.9-20,8.8c-10.8,3.9-17.2,7.8-27,12.3c-7.1,3.8-19.6,11.7-30,16.3
	c-12.6,5.5-22.5,7.3-22.5,7.3"/>
</svg>
