<?xml version="1.0" encoding="utf-8"?>
<!-- Generator: Adobe Illustrator 24.3.0, SVG Export Plug-In . SVG Version: 6.00 Build 0)  -->
<svg version="1.1" id="Слой_1" xmlns="http://www.w3.org/2000/svg" xmlns:xlink="http://www.w3.org/1999/xlink" x="0px" y="0px"
	 viewBox="0 0 75 437.6" style="enable-background:new 0 0 75 437.6;" xml:space="preserve">
<style type="text/css">
	.st0{fill:#FFFFFF;stroke:#000000;stroke-miterlimit:10;}
	.st1{fill:none;stroke:#000000;stroke-width:0.25;stroke-miterlimit:10;}
	.st2{fill:#F3F5F9;}
	.st3{fill:none;stroke:#FAD383;stroke-width:0.75;stroke-miterlimit:10;}
</style>
<path class="st0" d="M0,333.7"/>
<path class="st1" d="M61.5,197.9"/>
<path class="st2" d="M0,75.5c30.4,34.1,39.4,64.4,44.7,88.9C57.9,225,43,317.3,12.5,327.7C8.3,329.2,0,324.4,0,324.4S0,282.9,0,75.5
	z"/>
<path class="st2" d="M46.1,85.8"/>
<path class="st3" d="M1.1,64.3C11.4,72.9,21.3,83,30.8,94.5"/>
<path class="st3" d="M61,187.8c1.9,33-0.9,60.2-7.6,90.5"/>
<path class="st2" d="M1036.8,95.7C981.8,151.2,928,248.4,928,307.9c-0.1,64.9,58.8,102.8,108.8,112.7
	C1036.8,372.7,1036.8,145.7,1036.8,95.7z"/>
<line class="st3" x1="1027.6" y1="64.9" x2="978" y2="137.9"/>
<path class="st3" d="M906.8,314.4c-9.5,59.2,27.6,75.6,72.5,100"/>
</svg>
