<?xml version="1.0" encoding="utf-8"?>
<!-- Generator: Adobe Illustrator 25.2.0, SVG Export Plug-In . SVG Version: 6.00 Build 0)  -->
<svg version="1.2" baseProfile="tiny" id="Layer_1" xmlns="http://www.w3.org/2000/svg" xmlns:xlink="http://www.w3.org/1999/xlink"
	 x="0px" y="0px" viewBox="0 0 28.03 27.85" overflow="visible" xml:space="preserve">
<circle cx="14.02" cy="13.92" r="13"/>
<path fill-rule="evenodd" fill="#FFFFFF" d="M21.01,20.93h-2.6v-4.55c0-1.25-0.55-1.95-1.54-1.95c-0.25-0.01-0.49,0.04-0.72,0.14
	c-0.23,0.1-0.43,0.25-0.59,0.43c-0.16,0.19-0.28,0.41-0.35,0.64s-0.09,0.49-0.05,0.73v4.55h-2.6v-8.45h2.6v0.95
	c0.29-0.44,0.68-0.81,1.14-1.06c0.46-0.25,0.98-0.38,1.51-0.37c1.84,0,3.2,1.12,3.2,3.44L21.01,20.93L21.01,20.93z M9.6,11.13
	c-0.32,0-0.63-0.09-0.89-0.26c-0.26-0.17-0.47-0.42-0.59-0.72c-0.12-0.29-0.16-0.61-0.1-0.93c0.06-0.31,0.21-0.6,0.43-0.82
	c0.22-0.23,0.51-0.38,0.82-0.44C9.58,7.9,9.9,7.93,10.19,8.05c0.29,0.12,0.54,0.33,0.72,0.59c0.18,0.26,0.27,0.57,0.27,0.89
	c0,0.42-0.17,0.83-0.46,1.13C10.42,10.96,10.02,11.13,9.6,11.13z M11.26,20.93H8.01v-8.45h3.25L11.26,20.93L11.26,20.93z"/>
</svg>
