<?xml version="1.0" encoding="utf-8"?>
<!-- Generator: Adobe Illustrator 25.2.0, SVG Export Plug-In . SVG Version: 6.00 Build 0)  -->
<svg version="1.2" baseProfile="tiny" id="Layer_1" xmlns="http://www.w3.org/2000/svg" xmlns:xlink="http://www.w3.org/1999/xlink"
	 x="0px" y="0px" viewBox="0 0 28.03 27.85" overflow="visible" xml:space="preserve">
<circle cx="14.02" cy="13.92" r="13"/>
<path fill-rule="evenodd" fill="#FFFFFF" d="M11.41,7c-1.16-0.02-2.29,0.42-3.13,1.21c-0.8,0.84-1.23,1.96-1.21,3.12
	c-0.03,0.75-0.24,6.45,0.35,7.94c0.19,0.5,0.48,0.95,0.86,1.32c0.38,0.38,0.83,0.67,1.32,0.86c0.58,0.22,1.19,0.33,1.81,0.34
	c6.65,0.31,9.11,0.14,10.15-2.52c0.22-0.58,0.33-1.18,0.35-1.8c0.3-6.66-0.05-8.11-1.21-9.26C19.78,7.29,18.7,6.67,11.41,7
	 M11.47,20.45c-0.47,0-0.94-0.09-1.39-0.25c-0.32-0.12-0.62-0.31-0.86-0.55c-0.24-0.24-0.43-0.53-0.56-0.86
	c-0.44-1.14-0.3-6.53-0.26-7.4c-0.03-0.82,0.27-1.63,0.82-2.24c0.75-0.74,1.71-1.11,8.28-0.81c0.82-0.03,1.63,0.26,2.24,0.81
	c0.75,0.75,1.12,1.72,0.82,8.26c-0.01,0.47-0.09,0.94-0.26,1.38C19.63,20.52,18.08,20.76,11.47,20.45z M17.57,10.43
	c0,0.18,0.05,0.35,0.15,0.5c0.1,0.15,0.24,0.26,0.4,0.33c0.16,0.07,0.35,0.09,0.52,0.05c0.17-0.03,0.33-0.12,0.46-0.25
	c0.13-0.13,0.21-0.29,0.25-0.46c0.03-0.17,0.02-0.36-0.05-0.52c-0.07-0.16-0.18-0.3-0.33-0.4c-0.15-0.1-0.32-0.15-0.5-0.15
	c-0.12,0-0.24,0.02-0.35,0.07c-0.11,0.04-0.21,0.11-0.29,0.2c-0.08,0.08-0.15,0.18-0.19,0.29C17.59,10.19,17.57,10.31,17.57,10.43z
	 M10.65,14.4c0,0.76,0.22,1.5,0.64,2.13c0.42,0.63,1.02,1.13,1.72,1.42c0.7,0.29,1.47,0.37,2.22,0.22c0.74-0.15,1.43-0.51,1.97-1.05
	c0.54-0.54,0.9-1.22,1.05-1.96c0.15-0.74,0.07-1.52-0.22-2.22c-0.29-0.7-0.78-1.3-1.41-1.72c-0.63-0.42-1.37-0.65-2.13-0.65
	c-0.5,0-1,0.1-1.46,0.29c-0.46,0.19-0.89,0.47-1.24,0.83c-0.36,0.35-0.64,0.78-0.83,1.24C10.75,13.4,10.65,13.89,10.65,14.4z
	 M11.99,14.4c0-0.49,0.14-0.97,0.42-1.38c0.27-0.41,0.66-0.73,1.11-0.92c0.45-0.19,0.96-0.24,1.44-0.15
	c0.48,0.1,0.93,0.33,1.28,0.68c0.35,0.35,0.59,0.79,0.68,1.27c0.1,0.48,0.05,0.98-0.14,1.44c-0.19,0.46-0.51,0.84-0.92,1.12
	c-0.41,0.27-0.89,0.42-1.38,0.42c-0.33,0-0.65-0.06-0.95-0.19c-0.3-0.12-0.58-0.31-0.81-0.54c-0.23-0.23-0.41-0.5-0.54-0.81
	C12.06,15.04,11.99,14.72,11.99,14.4z"/>
</svg>
