<?xml version="1.0" encoding="utf-8"?>
<!-- Generator: Adobe Illustrator 24.1.1, SVG Export Plug-In . SVG Version: 6.00 Build 0)  -->
<svg version="1.1" id="Слой_1" xmlns="http://www.w3.org/2000/svg" xmlns:xlink="http://www.w3.org/1999/xlink" x="0px" y="0px"
	 viewBox="0 0 69.4 67" style="enable-background:new 0 0 69.4 67;" xml:space="preserve">
<style type="text/css">
	.st0{fill-rule:evenodd;clip-rule:evenodd;fill:#E6302D;}
	.st1{fill:#FFFFFF;}
</style>
<polygon class="st0" points="3.2,6.5 67.2,14.5 53.2,64.5 3.2,64.5 "/>
<path class="st1" d="M36.8,31.9c1.1-0.3,2-0.7,2.7-1.4c0.7-0.7,1.1-1.4,1.1-2c0-0.3-0.1-0.5-0.3-0.7c-0.2-0.2-0.4-0.2-0.7-0.2
	c-0.6,0-1.1,0.4-1.6,1.1C37.5,29.4,37.1,30.5,36.8,31.9z M28.7,45c-0.6-0.5-1.3-0.8-2.1-1.1c-0.7-0.3-1.5-0.4-2.2-0.4
	c-0.7,0-1.3,0.2-1.8,0.5c-0.4,0.3-0.7,0.7-0.7,1.2c0,0.5,0.2,0.9,0.7,1.2c0.5,0.3,1.1,0.4,2,0.4c0.8,0,1.5-0.1,2.1-0.4
	C27.5,46,28.1,45.6,28.7,45z M31.1,46.6c-0.8,0.8-1.7,1.3-2.7,1.7c-1.1,0.4-2.2,0.6-3.5,0.6c-1.6,0-2.9-0.3-3.9-1
	c-0.9-0.7-1.4-1.6-1.4-2.8c0-1.2,0.5-2.2,1.4-3c0.9-0.8,2.1-1.2,3.6-1.2c0.9,0,1.8,0.2,2.7,0.5c0.9,0.3,1.9,0.8,2.8,1.4
	c0.4-0.8,0.7-1.9,1.1-3.2c0.4-1.3,0.8-3,1.4-5.1c-1.2-0.2-2.1-0.5-2.8-1c-0.6-0.5-0.9-1.2-0.9-2.1c0-0.6,0.1-1.1,0.4-1.5
	c0.3-0.4,0.7-0.6,1.1-0.6c0.1,0.8,0.4,1.4,0.9,1.8c0.5,0.4,1.2,0.7,2.1,0.9c0.6-2,1.4-3.5,2.5-4.5c1.1-1,2.3-1.6,3.7-1.6
	c1.1,0,1.9,0.3,2.5,0.8c0.6,0.5,0.9,1.3,0.9,2.2c0,1.5-0.6,2.7-1.8,3.8c-1.2,1-2.8,1.7-4.8,2c-0.4,2.3-0.9,4.2-1.5,5.8
	c-0.5,1.6-1.2,3-1.9,4.2c0.8,0.6,1.7,1.2,2.6,1.6c1,0.4,2,0.6,2.9,0.7l-0.6,2h-0.2c-1.2,0-2.3-0.2-3.4-0.6
	C33.2,48,32.1,47.4,31.1,46.6z"/>
</svg>
