<?xml version="1.0" encoding="utf-8"?>
<!-- Generator: Adobe Illustrator 24.1.1, SVG Export Plug-In . SVG Version: 6.00 Build 0)  -->
<svg version="1.1" id="Слой_1" xmlns="http://www.w3.org/2000/svg" xmlns:xlink="http://www.w3.org/1999/xlink" x="0px" y="0px"
	 viewBox="0 0 24.7 25.3" style="enable-background:new 0 0 24.7 25.3;" xml:space="preserve">
<style type="text/css">
	.st0{fill:#020203;}
</style>
<path class="st0" d="M9.3,20.6h6v2h-6V20.6z M18.3,16.6v-7c0-1.6-0.6-3.1-1.8-4.2s-2.7-1.8-4.2-1.8c-1.6,0-3.1,0.6-4.2,1.8
	S6.3,8,6.3,9.6v7H18.3z M20.3,16.6h2v2h-20v-2h2v-7c0-2.1,0.8-4.2,2.3-5.7c1.5-1.5,3.5-2.3,5.7-2.3c2.1,0,4.2,0.8,5.7,2.3
	c1.5,1.5,2.3,3.5,2.3,5.7V16.6z"/>
</svg>
