<?xml version="1.0" encoding="utf-8"?>
<!-- Generator: Adobe Illustrator 24.1.1, SVG Export Plug-In . SVG Version: 6.00 Build 0)  -->
<svg version="1.1" id="Слой_1" xmlns="http://www.w3.org/2000/svg" xmlns:xlink="http://www.w3.org/1999/xlink" x="0px" y="0px"
	 viewBox="0 0 24.7 25.3" style="enable-background:new 0 0 24.7 25.3;" xml:space="preserve">
<style type="text/css">
	.st0{fill-rule:evenodd;clip-rule:evenodd;fill:#E6302D;}
</style>
<path class="st0" d="M19.6,18c-0.5,1.4-2.3,2.1-3.6,2c-1.9-0.3-3.6-1-5.2-2.1c-2.3-1.6-4.1-3.8-5.3-6.4c-0.5-0.9-0.7-1.8-0.7-2.8
	c0-1,0.3-1.9,0.9-2.7c0.2-0.3,0.4-0.5,0.7-0.7C6.8,5.1,7.1,5,7.4,5c1-0.1,1.2,0.5,1.5,1.5c0.3,0.7,0.6,1.4,0.8,2.1
	c0.4,1.3-0.9,1.4-1.1,2.5c-0.1,0.7,0.7,1.6,1.1,2.1c0.7,1,1.6,1.8,2.6,2.4c0.6,0.3,1.5,1,2.1,0.6c1-0.6,0.9-2.2,2.3-1.7
	c0.7,0.3,1.4,0.7,2.1,1.1C20.1,16.1,20,16.7,19.6,18C19.3,18.9,19.9,17,19.6,18z"/>
</svg>
