<?xml version="1.0" encoding="utf-8"?>
<!-- Generator: Adobe Illustrator 25.2.0, SVG Export Plug-In . SVG Version: 6.00 Build 0)  -->
<svg version="1.2" baseProfile="tiny" id="Layer_1" xmlns="http://www.w3.org/2000/svg" xmlns:xlink="http://www.w3.org/1999/xlink"
	 x="0px" y="0px" viewBox="0 0 28.03 27.85" overflow="visible" xml:space="preserve">
<circle cx="14.02" cy="13.92" r="13"/>
<path fill-rule="evenodd" fill="#FFFFFF" d="M11.74,19.92c1.14,0.02,2.28-0.19,3.34-0.62c1.06-0.42,2.03-1.06,2.84-1.86
	c0.81-0.8,1.46-1.76,1.9-2.81c0.44-1.05,0.67-2.18,0.67-3.33c0-0.13,0-0.27-0.01-0.39c0.6-0.43,1.12-0.96,1.54-1.57
	c-0.56,0.24-1.16,0.4-1.77,0.47c0.64-0.37,1.12-0.97,1.35-1.67c-0.61,0.35-1.27,0.6-1.95,0.73c-0.57-0.58-1.34-0.93-2.15-0.95
	c-0.81-0.02-1.6,0.27-2.2,0.82c-0.39,0.36-0.68,0.82-0.84,1.33c-0.16,0.51-0.17,1.05-0.05,1.57c-1.22-0.06-2.41-0.37-3.5-0.92
	c-1.09-0.55-2.06-1.31-2.84-2.25c-0.39,0.67-0.51,1.46-0.34,2.21c0.18,0.75,0.64,1.41,1.29,1.83c-0.49-0.01-0.97-0.14-1.4-0.37v0.03
	c0,0.7,0.25,1.39,0.7,1.93c0.45,0.54,1.08,0.91,1.77,1.04c-0.45,0.12-0.93,0.14-1.39,0.05c0.2,0.61,0.59,1.14,1.1,1.51
	c0.52,0.38,1.14,0.59,1.77,0.6c-1.1,0.84-2.44,1.3-3.82,1.3c-0.24,0-0.49-0.02-0.73-0.05C8.43,19.45,10.07,19.93,11.74,19.92"/>
</svg>
