<?xml version="1.0" encoding="utf-8"?>
<!-- Generator: Adobe Illustrator 25.2.0, SVG Export Plug-In . SVG Version: 6.00 Build 0)  -->
<svg version="1.2" baseProfile="tiny" id="Layer_1" xmlns="http://www.w3.org/2000/svg" xmlns:xlink="http://www.w3.org/1999/xlink"
	 x="0px" y="0px" viewBox="0 0 59.36 54.6" overflow="visible" xml:space="preserve">
<path fill="#FFFFFF" d="M50.34,46.64H10.38V21.75c0-1.18,0.96-2.14,2.14-2.14h35.68c1.18,0,2.13,0.95,2.13,2.13V46.64z"/>
<path fill="#C0CCDA" d="M14.65,19.61L14.65,19.61l-2.13,0c-1.18,0-2.14,0.98-2.14,2.16v24.87h39.96v-7.48H34.21
	C23.41,39.16,14.65,30.41,14.65,19.61z"/>
<path fill="#FFFFFF" d="M51.62,50.69H9.1c-1.18,0-2.14-0.98-2.14-2.16v-5.21h16.96l1.1,2.67h10.65l1.1-2.67h16.98v5.21
	C53.76,49.72,52.8,50.69,51.62,50.69z"/>
<path fill="#1C2D41" d="M52.15,48.53c0,0.3-0.24,0.57-0.53,0.57H9.1c-0.29,0-0.53-0.27-0.53-0.57v-3.6h14.29l0.69,1.68
	c0.25,0.6,0.83,0.99,1.48,0.99h10.65c0.65,0,1.23-0.39,1.48-0.99l0.69-1.68h14.31V48.53z M53.76,41.72h-1.82V21.71
	c0-2.06-1.67-3.7-3.73-3.7h-4.81v3.2h4.81c0.29,0,0.53,0.21,0.53,0.5v20.01H36.78c-0.65,0-1.23,0.39-1.48,0.99l-0.69,1.68H26.1
	l-0.69-1.68c-0.25-0.6-0.83-0.99-1.48-0.99H11.98V21.71c0-0.29,0.25-0.5,0.54-0.5h5.02v-3.2h-5.02c-2.06,0-3.75,1.64-3.75,3.7v20.01
	H6.96c-0.89,0-1.6,0.7-1.6,1.59v5.21c0,2.06,1.68,3.77,3.74,3.77h42.52c2.06,0,3.74-1.71,3.74-3.77v-5.21
	C55.36,42.43,54.64,41.72,53.76,41.72z"/>
<polygon fill="#FFFFFF" points="35.81,38.03 30.37,34.34 24.91,38.03 24.91,20.14 35.81,20.14 "/>
<ellipse transform="matrix(0.0125 -0.9999 0.9999 0.0125 16.5936 43.5767)" fill="#FFFFFF" cx="30.36" cy="13.39" rx="9.49" ry="9.49"/>
<polygon fill="#FF1E1E" points="30.36,16.14 33.3,17.68 32.74,14.41 35.12,12.1 31.83,11.62 30.36,8.65 28.89,11.62 25.6,12.1 
	27.98,14.41 27.42,17.68 "/>
<path fill="#1C2D41" d="M34.21,34.97l-2.94-1.99c-0.54-0.37-1.26-0.37-1.8,0l-2.96,2V23.77c1.21,0.45,2.52,0.68,3.85,0.68
	s2.63-0.24,3.85-0.68V34.97z M30.36,5.5c4.35,0,7.88,3.53,7.88,7.88s-3.54,7.88-7.88,7.88s-7.88-3.53-7.88-7.88S26.01,5.5,30.36,5.5
	z M41.45,13.38c0-6.11-4.97-11.08-11.09-11.08S19.27,7.27,19.27,13.38c0,3.44,1.57,6.51,4.04,8.54V38c0,1.27,1.46,2.03,2.5,1.33
	l4.56-3.08l4.54,3.08c1.03,0.7,2.5-0.07,2.5-1.32V21.92C39.87,19.88,41.45,16.81,41.45,13.38z"/>
</svg>
