<?xml version="1.0" encoding="utf-8"?>
<!-- Generator: Adobe Illustrator 25.2.0, SVG Export Plug-In . SVG Version: 6.00 Build 0)  -->
<svg version="1.2" baseProfile="tiny" id="Layer_1" xmlns="http://www.w3.org/2000/svg" xmlns:xlink="http://www.w3.org/1999/xlink"
	 x="0px" y="0px" viewBox="0 0 59.36 54.6" overflow="visible" xml:space="preserve">
<path fill="#FFFFFF" d="M27.69,31.94H7.28v-3.39c0-5.64,4.57-10.21,10.21-10.21s10.21,4.57,10.21,10.21V31.94z"/>
<path fill="#C0CCDA" d="M19.62,18.57c-0.69-0.15-1.4-0.23-2.14-0.23c-5.64,0-10.21,4.58-10.21,10.22v3.37h4.27v-3.37
	C11.56,23.66,15.01,19.56,19.62,18.57z"/>
<path fill="#1C2D41" d="M14.83,33.55H7.28c-0.89,0-1.6-0.72-1.6-1.61v-3.37c0-3.05,1.16-5.95,3.26-8.16l2.32,2.22
	c-1.53,1.61-2.38,3.72-2.38,5.95v1.77h5.94V33.55z"/>
<ellipse fill="#FFFFFF" cx="17.49" cy="13.85" rx="6.41" ry="6.42"/>
<path fill="#C0CCDA" d="M15.35,14.92c0-3.32,2.51-6.05,5.73-6.39c-1.03-0.7-2.26-1.11-3.6-1.11c-3.54,0-6.41,2.88-6.41,6.42
	c0,3.55,2.87,6.42,6.41,6.42c0.23,0,0.45-0.01,0.68-0.04C16.47,19.08,15.35,17.13,15.35,14.92z"/>
<path fill="#1C2D41" d="M17.49,9.03c-2.65,0-4.81,2.16-4.81,4.82s2.16,4.82,4.81,4.82c2.65,0,4.81-2.16,4.81-4.82
	S20.14,9.03,17.49,9.03z M17.49,21.88c-4.42,0-8.01-3.6-8.01-8.03s3.59-8.03,8.01-8.03c4.42,0,8.01,3.6,8.01,8.03
	S21.91,21.88,17.49,21.88z"/>
<path fill="#FFFFFF" d="M54.08,31.84H33.67v-3.39c0-5.64,4.57-10.21,10.21-10.21c5.64,0,10.21,4.57,10.21,10.21L54.08,31.84
	L54.08,31.84z"/>
<path fill="#C0CCDA" d="M43.87,18.24c-0.73,0-1.45,0.08-2.14,0.23c4.61,0.98,8.07,5.09,8.07,10v3.37h4.27v-3.37
	C54.08,22.82,49.51,18.24,43.87,18.24z"/>
<path fill="#1C2D41" d="M54.08,33.44h-7.54v-3.21h5.94v-1.77c0-2.18-0.81-4.26-2.29-5.86l2.35-2.18c2.03,2.19,3.15,5.05,3.15,8.04
	v3.37C55.68,32.72,54.96,33.44,54.08,33.44z"/>
<path fill="#FFFFFF" d="M43.87,20.17c3.54,0,6.41-2.88,6.41-6.42c0-3.55-2.87-6.42-6.41-6.42s-6.41,2.88-6.41,6.42
	C37.46,17.29,40.33,20.17,43.87,20.17z"/>
<path fill="#C0CCDA" d="M43.87,7.32c-1.83,0-3.49,0.77-4.65,2.01c0.33-0.05,0.67-0.08,1.02-0.08c3.54,0,6.41,2.88,6.41,6.42
	c0,1.71-0.67,3.26-1.76,4.41c3.05-0.49,5.39-3.14,5.39-6.34C50.28,10.2,47.41,7.32,43.87,7.32z"/>
<path fill="#1C2D41" d="M43.87,8.93c-2.65,0-4.81,2.16-4.81,4.82s2.16,4.82,4.81,4.82c2.65,0,4.81-2.16,4.81-4.82
	S46.52,8.93,43.87,8.93z M43.87,21.77c-4.42,0-8.01-3.6-8.01-8.03s3.59-8.03,8.01-8.03c4.42,0,8.01,3.6,8.01,8.03
	S48.29,21.77,43.87,21.77z"/>
<path fill="#FFFFFF" d="M45.68,47.27h-30v-4.98c0-8.28,6.71-15,15-15c8.28,0,15,6.71,15,15V47.27z"/>
<path fill="#C0CCDA" d="M32.5,27.4c-0.6-0.07-1.2-0.11-1.82-0.11c-8.28,0-15,6.73-15,15.03v4.95h3.63v-4.95
	C19.31,34.64,25.07,28.3,32.5,27.4z"/>
<rect x="29.08" y="29.99" fill="#3E4D6C" width="3.21" height="10.15"/>
<path fill="#1C2D41" d="M45.68,48.88h-30c-0.89,0-1.6-0.72-1.6-1.61v-4.95c0-4.95,2.18-9.61,5.98-12.78L22.11,32
	c-3.07,2.56-4.83,6.32-4.83,10.32v3.35h26.79v-3.35c0-3.95-1.73-7.69-4.74-10.24l2.07-2.45c3.73,3.17,5.87,7.8,5.87,12.69v4.95
	C47.28,48.16,46.56,48.88,45.68,48.88z"/>
<ellipse fill="#FF1E1E" cx="30.68" cy="20.68" rx="10.15" ry="10.17"/>
</svg>
