<?xml version="1.0" encoding="utf-8"?>
<!-- Generator: Adobe Illustrator 25.2.0, SVG Export Plug-In . SVG Version: 6.00 Build 0)  -->
<svg version="1.2" baseProfile="tiny" id="Layer_1" xmlns="http://www.w3.org/2000/svg" xmlns:xlink="http://www.w3.org/1999/xlink"
	 x="0px" y="0px" viewBox="0 0 59.36 54.6" overflow="visible" xml:space="preserve">
<path fill="#FFFFFF" d="M34.46,35.3l8.26-3.69c2.35-1.27,5.13-1.48,7.65-0.57c1.56,0.56,2.5,2.78,0.38,4.69L33.6,45.49
	c-1.03,0.59-2.2,0.9-3.4,0.9H17.33l-3.72-9.34c0,0,3.49-10.64,12.68-7l7.04,0.08c1.27,0.04,2.28,1.29,2.28,2.82
	c0,1.56-1.05,2.82-2.34,2.82h-6.89"/>
<path fill="#FFFFFF" d="M17.45,49.06l-2.32,1.27c-1.15,0.63-2.6,0.11-3.09-1.11L7.61,38.11c-0.41-1.02,0.01-2.18,0.98-2.71
	l2.32-1.27c1.15-0.63,2.6-0.11,3.09,1.11l4.42,11.11C18.84,47.37,18.42,48.53,17.45,49.06z"/>
<path fill="#E6E7E8" d="M7.61,38.11l4.42,11.11c0.49,1.22,1.93,1.74,3.09,1.11l1.02-0.55L9.86,34.71L8.6,35.4
	C7.63,35.93,7.21,37.09,7.61,38.11z"/>
<path fill="#1C2D41" d="M49.72,34.35L32.75,44c-0.77,0.44-1.66,0.67-2.55,0.67H19.61l-3.55-8.9c0.77-1.42,2.11-3.31,4.07-4.23
	c1.64-0.76,3.45-0.73,5.53,0.09c0.19,0.08,0.4,0.12,0.61,0.12l7.01,0.08c0.25,0.02,0.61,0.45,0.61,1.11c0,0.67-0.38,1.11-0.63,1.11
	h-6.89v3.42h6.89c0.83,0,1.61-0.28,2.25-0.76c0,0,7.97-3.56,8.01-3.58c1.92-1.04,4.2-1.21,6.26-0.47
	C50.68,32.97,50.1,33.97,49.72,34.35z M16.63,47.56l-2.32,1.27c-0.3,0.12-0.52,0.04-0.67-0.24L9.2,37.48
	c-0.09-0.22,0-0.47,0.21-0.58l2.32-1.27c0.24-0.13,0.57-0.03,0.67,0.24l4.42,11.11C16.93,47.2,16.83,47.45,16.63,47.56z
	 M41.96,30.08l-4.69,2.1c-0.31-2.1-1.91-3.7-3.89-3.76c-0.01,0-0.02,0-0.03,0l-6.73-0.08c-2.85-1.06-5.53-1.02-7.95,0.12
	c-2.11,0.99-3.66,2.66-4.73,4.23c-1.16-0.67-2.66-0.7-3.84-0.05L7.77,33.9c-1.72,0.94-2.48,3.02-1.75,4.84l4.42,11.11
	c0.85,2.14,3.48,3.08,5.5,1.98l2.32-1.27c0.98-0.54,1.65-1.45,1.91-2.47H30.2c1.49,0,2.95-0.39,4.24-1.12c0,0,17.36-9.89,17.45-9.98
	c2.38-2.15,2.47-6.34-0.95-7.57C48,28.37,44.73,28.6,41.96,30.08z"/>
<ellipse fill="#FF1E1E" cx="38.71" cy="13.51" rx="11.28" ry="11.21"/>
<path fill="#FFFFFF" d="M39.55,12.03c-1.45-0.59-1.56-0.84-1.56-1.14c0-0.19,0.09-0.62,0.96-0.62c0.8,0,1.79,0.44,2.49,0.9
	l0.97-2.53c-0.69-0.44-1.54-0.82-2.33-0.94V6.05h-2.59v1.81C35.95,8.34,35,9.57,35,11.09c0,2.02,1.62,2.92,3.21,3.53
	c1.27,0.51,1.37,0.89,1.37,1.22c0,0.5-0.46,0.82-1.18,0.82c-0.93,0-2.02-0.53-2.78-1.12l-0.94,2.57c0.77,0.6,1.67,0.99,2.68,1.14
	v1.71h2.61V19.1c1.59-0.5,2.61-1.81,2.61-3.37C42.59,13.54,40.97,12.6,39.55,12.03z"/>
</svg>
