<?xml version="1.0" encoding="utf-8"?>
<!-- Generator: Adobe Illustrator 25.2.0, SVG Export Plug-In . SVG Version: 6.00 Build 0)  -->
<svg version="1.2" baseProfile="tiny" id="Layer_1" xmlns="http://www.w3.org/2000/svg" xmlns:xlink="http://www.w3.org/1999/xlink"
	 x="0px" y="0px" viewBox="0 0 59.36 54.6" overflow="visible" xml:space="preserve">
<circle fill="#1C2D41" cx="30.18" cy="10.8" r="4.5"/>
<path fill="#C0CCDA" d="M30.18,19.3c-12.43,0-22.5,10.55-22.5,22h45C52.68,29.84,42.61,19.3,30.18,19.3z"/>
<path fill="#448AF9" d="M9.32,40.64h42.72c-0.47-11.11-10.25-20.68-21.36-20.68S9.79,29.53,9.32,40.64z M52.87,42.3H8.49
	c-0.45,0-0.81-0.37-0.81-0.83c0-5.84,2.45-11.71,6.74-16.12c4.42-4.55,10.2-7.05,16.26-7.05c6.07,0,11.84,2.5,16.26,7.05
	c4.28,4.4,6.74,10.28,6.74,16.12C53.68,41.93,53.32,42.3,52.87,42.3z"/>
<path fill="#FF1E1E" d="M30.68,18.96c-11.66,0-21.87,10-22.36,21.64l2,0.08c0.45-10.58,9.8-19.72,20.36-19.72V18.96z M53.04,40.59
	c-0.49-11.63-10.7-21.64-22.36-21.64v2c10.57,0,19.92,9.13,20.36,19.72L53.04,40.59z M9.32,41.64h42.72v-2H9.32V41.64z M52.68,41.47
	c0-0.07,0.06-0.17,0.19-0.17v2c1.02,0,1.81-0.84,1.81-1.83H52.68z M46.23,26.05c4.11,4.23,6.45,9.86,6.45,15.42h2
	c0-6.11-2.57-12.23-7.02-16.81L46.23,26.05z M30.68,19.3c5.78,0,11.31,2.39,15.55,6.75l1.43-1.39c-4.6-4.73-10.63-7.36-16.98-7.36
	V19.3z M15.13,26.05c4.24-4.36,9.76-6.75,15.55-6.75v-2c-6.35,0-12.38,2.62-16.98,7.36L15.13,26.05z M8.68,41.47
	c0-5.56,2.34-11.19,6.45-15.42l-1.43-1.39c-4.45,4.58-7.02,10.7-7.02,16.81H8.68z M8.49,41.3c0.13,0,0.19,0.1,0.19,0.17h-2
	c0,0.99,0.79,1.83,1.81,1.83V41.3z M52.87,41.3H8.49v2h44.38V41.3z M52.04,40.64v1h1.04l-0.04-1.04L52.04,40.64z M9.32,40.64
	l-1-0.04l-0.04,1.04h1.04V40.64z M46.94,25.35l0.72-0.7L46.94,25.35z M14.42,25.35l0.72,0.7h0L14.42,25.35z"/>
<path fill="#1C2D41" d="M6.68,46.8c0-0.83,0.67-1.5,1.5-1.5h45c0.83,0,1.5,0.67,1.5,1.5c0,0.83-0.67,1.5-1.5,1.5h-45
	C7.35,48.3,6.68,47.63,6.68,46.8z"/>
</svg>
