<?xml version="1.0" encoding="utf-8"?>
<!-- Generator: Adobe Illustrator 25.2.0, SVG Export Plug-In . SVG Version: 6.00 Build 0)  -->
<svg version="1.2" baseProfile="tiny" id="Layer_1" xmlns="http://www.w3.org/2000/svg" xmlns:xlink="http://www.w3.org/1999/xlink"
	 x="0px" y="0px" viewBox="0 0 44.6 54.6" overflow="visible" xml:space="preserve">
<path fill="#FFFFFF" d="M22.75,15.77c3.26,0,5.91-2.65,5.91-5.91c0-3.27-2.64-5.91-5.91-5.91c-3.26,0-5.91,2.65-5.91,5.91
	C16.84,13.12,19.48,15.77,22.75,15.77z"/>
<path fill="#1C2D41" d="M22.75,5.65c-2.31,0-4.2,1.89-4.2,4.2s1.88,4.2,4.2,4.2c2.31,0,4.2-1.89,4.2-4.2S25.06,5.65,22.75,5.65z
	 M22.75,17.48c-4.2,0-7.62-3.42-7.62-7.62s3.42-7.62,7.62-7.62c4.2,0,7.62,3.42,7.62,7.62S26.95,17.48,22.75,17.48z"/>
<path fill="#FF1E1E" d="M33.43,35.22H12.06v-5.77c0-5.75,4.66-10.41,10.41-10.41h0.54c5.75,0,10.41,4.66,10.41,10.41L33.43,35.22
	L33.43,35.22z"/>
<path fill="#FFFFFF" d="M35.54,50.52H9.96c-0.75,0-1.37-0.56-1.46-1.3L6.51,32.98c-0.11-0.88,0.58-1.66,1.46-1.66h29.54
	c0.89,0,1.57,0.78,1.46,1.66L37,49.22C36.91,49.96,36.28,50.52,35.54,50.52z"/>
<path fill="#C0CCDA" d="M7.98,31.32c-0.89,0-1.57,0.78-1.46,1.66l1.98,16.24c0.09,0.74,0.72,1.3,1.46,1.3h21.9l-6.42-2.22
	c-7.45-2.58-12.81-9.15-13.85-16.97L7.98,31.32L7.98,31.32z"/>
<path fill="#1C2D41" d="M35.33,48.81H10.16L9.8,45.8h25.9L35.33,48.81z M37.25,33.03l-1.14,9.35H9.38l-1.14-9.35H37.25z
	 M37.52,29.61H7.98c-3.16,0-3.27,2.67-3.16,3.57l1.98,16.24c0.19,1.6,1.55,2.8,3.16,2.8h25.58c1.61,0,2.97-1.2,3.16-2.8l1.98-16.24
	C41.21,30.76,39.49,29.61,37.52,29.61z"/>
</svg>
