<?xml version="1.0" encoding="utf-8"?>
<!-- Generator: Adobe Illustrator 25.2.0, SVG Export Plug-In . SVG Version: 6.00 Build 0)  -->
<svg version="1.2" baseProfile="tiny" id="Layer_1" xmlns="http://www.w3.org/2000/svg" xmlns:xlink="http://www.w3.org/1999/xlink"
	 x="0px" y="0px" viewBox="0 0 59.36 54.6" overflow="visible" xml:space="preserve">
<path fill="#FFFFFF" d="M20.94,47.89h-5.78c-5.87,0-10.63-5.34-10.63-11.21h27.04C31.57,42.55,26.81,47.89,20.94,47.89z"/>
<path fill="#C0CCDA" d="M11.18,36.68H4.53c0,5.87,4.76,11.21,10.63,11.21h5.78c0.14,0,0.29,0,0.43-0.01
	C15.7,47.63,11.18,42.41,11.18,36.68z"/>
<path fill="#FFFFFF" d="M18.05,40.65c7.47,0,13.52-1.78,13.52-3.96c0-2.19-6.05-3.97-13.52-3.97c-7.47,0-13.52,1.78-13.52,3.97
	C4.53,38.87,10.59,40.65,18.05,40.65z"/>
<path fill="#1C2D41" d="M18.05,38.87c-6.68,0-10.6-1.4-11.58-2.19c0.99-0.79,4.91-2.19,11.58-2.19c6.68,0,10.6,1.4,11.58,2.19
	C28.65,37.47,24.73,38.87,18.05,38.87z M20.94,46.12h-5.78c-3.29,0-6.29-2.14-7.81-5.14c3.41,1.13,7.13,1.43,10.7,1.43
	c3.57,0,7.29-0.3,10.7-1.43C27.23,43.98,24.23,46.12,20.94,46.12z M38.11,31.8l-1.13-3.36c-3.27,1.1-5.04,3.16-5.99,4.9
	c-3.73-2.15-8.74-2.41-12.94-2.41c-3.61,0-14.78-0.1-15.29,5.74c-0.29,3.26,1.31,6.56,3.59,9.01c2.38,2.56,5.51,3.97,8.81,3.97h5.78
	c3.3,0,6.43-1.41,8.81-3.97c2.13-2.29,3.41-5.3,3.57-8.35C33.52,36.09,34.37,33.07,38.11,31.8z"/>
<path fill="#FF1E1E" d="M49.12,30.28l-10.67,2.3l-1.83-5.02l9.14-5.64c2.46-1.52,5.71-0.4,6.7,2.33
	C53.4,26.86,51.83,29.7,49.12,30.28z"/>
<path fill="#FF1E1E" d="M16.88,20.99c-0.09-0.12-0.91-1.19-1.41-2.71c-0.74-2.25-0.44-4.33,0.88-6.01c0.97-1.24,1.31-2.38,1.02-3.37
	c-0.23-0.77-0.76-1.23-0.76-1.24l0.02,0.02l2.24-2.75c0.13,0.1,1.25,1.05,1.82,2.71c0.53,1.53,0.69,3.96-1.54,6.81
	c-1.39,1.79,0.46,4.27,0.54,4.37L16.88,20.99z"/>
<path fill="#FF1E1E" d="M6.94,27.62c-0.09-0.12-0.91-1.19-1.41-2.71C4.8,22.66,5.1,20.58,6.41,18.9c1-1.29,1.34-2.46,0.98-3.48
	c-0.23-0.68-0.7-1.11-0.71-1.11l2.23-2.75c0.13,0.1,1.25,1.05,1.82,2.71c0.53,1.53,0.69,3.96-1.54,6.81
	c-1.39,1.79,0.46,4.27,0.54,4.37L6.94,27.62z"/>
<path fill="#FF1E1E" d="M25.72,27.62c-0.09-0.12-0.91-1.19-1.41-2.71c-0.74-2.25-0.44-4.33,0.88-6.01c0.97-1.24,1.31-2.38,1.02-3.37
	c-0.23-0.77-0.76-1.23-0.76-1.24l0.02,0.02l2.24-2.75c0.13,0.1,1.25,1.05,1.82,2.71c0.53,1.53,0.69,3.96-1.54,6.81
	c-1.39,1.79,0.46,4.27,0.54,4.37L25.72,27.62z"/>
</svg>
