<?xml version="1.0" encoding="utf-8"?>
<!-- Generator: Adobe Illustrator 25.2.0, SVG Export Plug-In . SVG Version: 6.00 Build 0)  -->
<svg version="1.2" baseProfile="tiny" id="Layer_1" xmlns="http://www.w3.org/2000/svg" xmlns:xlink="http://www.w3.org/1999/xlink"
	 x="0px" y="0px" viewBox="0 0 21.78 22.81" overflow="visible" xml:space="preserve">
<path d="M10.81,7.4c-0.27,0-0.52-0.11-0.71-0.29S9.81,6.67,9.81,6.4c0-0.27,0.11-0.52,0.29-0.71s0.44-0.29,0.71-0.29
	c0.27,0,0.52,0.11,0.71,0.29s0.29,0.44,0.29,0.71c0,0.27-0.11,0.52-0.29,0.71S11.07,7.4,10.81,7.4z M2.81,7.64V8.4h16V7.64l-8-4
	L2.81,7.64z M0.81,6.4l10-5l10,5v4h-20V6.4z M16.81,11.4h2v7h-2V11.4z M11.81,11.4h2v7h-2V11.4z M7.81,11.4h2v7h-2V11.4z M2.81,11.4
	h2v7h-2V11.4z M0.81,19.4h20v2h-20V19.4z"/>
</svg>
