<?xml version="1.0" encoding="utf-8"?>
<!-- Generator: Adobe Illustrator 25.2.0, SVG Export Plug-In . SVG Version: 6.00 Build 0)  -->
<svg version="1.1" id="Layer_1" xmlns="http://www.w3.org/2000/svg" xmlns:xlink="http://www.w3.org/1999/xlink" x="0px" y="0px"
	 viewBox="0 0 17.5 16.95" style="enable-background:new 0 0 17.5 16.95;" xml:space="preserve">
<style type="text/css">
	.st0{fill:#EE2D2B;}
</style>
<path class="st0" d="M11.22,10.91v1.88c0,0.37,0.11,0.73,0.32,1.04c0.21,0.31,0.5,0.55,0.84,0.69c0.34,0.14,0.72,0.18,1.08,0.11
	c0.36-0.07,0.7-0.25,0.96-0.51s0.44-0.6,0.51-0.96c0.07-0.36,0.04-0.74-0.11-1.08c-0.14-0.34-0.38-0.64-0.69-0.84
	c-0.31-0.21-0.67-0.32-1.04-0.32H11.22z M9.55,9.24h3.54c0.7,0,1.39,0.21,1.97,0.6s1.04,0.94,1.3,1.59c0.27,0.65,0.34,1.36,0.2,2.05
	s-0.47,1.32-0.97,1.81c-0.5,0.5-1.13,0.83-1.81,0.97c-0.69,0.14-1.4,0.07-2.05-0.2c-0.65-0.27-1.2-0.72-1.59-1.3
	c-0.39-0.58-0.6-1.27-0.6-1.97V9.24z M13.1,5.91c0.37,0,0.73-0.11,1.04-0.32c0.31-0.21,0.55-0.5,0.69-0.84s0.18-0.72,0.11-1.08
	c-0.07-0.36-0.25-0.7-0.51-0.96s-0.6-0.44-0.96-0.51s-0.74-0.04-1.08,0.11c-0.34,0.14-0.64,0.38-0.84,0.69
	c-0.21,0.31-0.32,0.67-0.32,1.04v1.88H13.1z M13.1,0.49c0.94,0,1.84,0.37,2.5,1.04s1.04,1.57,1.04,2.5s-0.37,1.84-1.04,2.5
	s-1.57,1.04-2.5,1.04H9.55V4.03c0-0.94,0.37-1.84,1.04-2.5C11.26,0.87,12.16,0.49,13.1,0.49z M4.35,10.91
	c-0.37,0-0.73,0.11-1.04,0.32c-0.31,0.21-0.55,0.5-0.69,0.84c-0.14,0.34-0.18,0.72-0.11,1.08c0.07,0.36,0.25,0.7,0.51,0.96
	s0.6,0.44,0.96,0.51c0.36,0.07,0.74,0.04,1.08-0.11c0.34-0.14,0.64-0.38,0.84-0.69c0.21-0.31,0.32-0.67,0.32-1.04v-1.88H4.35z
	 M4.35,9.24h3.54v3.54c0,0.7-0.21,1.39-0.6,1.97s-0.94,1.04-1.59,1.3c-0.65,0.27-1.36,0.34-2.05,0.2c-0.69-0.14-1.32-0.47-1.81-0.97
	c-0.5-0.5-0.83-1.13-0.97-1.81c-0.14-0.69-0.07-1.4,0.2-2.05c0.27-0.65,0.72-1.2,1.3-1.59C2.96,9.45,3.65,9.24,4.35,9.24z
	 M6.22,5.91V4.03c0-0.37-0.11-0.73-0.32-1.04C5.7,2.68,5.41,2.44,5.06,2.3C4.72,2.16,4.34,2.12,3.98,2.2
	c-0.36,0.07-0.7,0.25-0.96,0.51S2.58,3.3,2.51,3.67C2.43,4.03,2.47,4.41,2.61,4.75C2.76,5.09,3,5.39,3.3,5.59
	C3.61,5.8,3.98,5.91,4.35,5.91H6.22z M4.35,0.49c0.47,0,0.93,0.09,1.36,0.27C6.13,0.94,6.52,1.2,6.85,1.53
	c0.33,0.33,0.59,0.72,0.77,1.15C7.8,3.11,7.89,3.57,7.89,4.03v3.54H4.35c-0.94,0-1.84-0.37-2.5-1.04C1.18,5.87,0.8,4.97,0.8,4.03
	s0.37-1.84,1.04-2.5C2.51,0.87,3.41,0.49,4.35,0.49z"/>
</svg>
