<?xml version="1.0" encoding="utf-8"?>
<!-- Generator: Adobe Illustrator 25.2.0, SVG Export Plug-In . SVG Version: 6.00 Build 0)  -->
<svg version="1.2" baseProfile="tiny" id="Layer_1" xmlns="http://www.w3.org/2000/svg" xmlns:xlink="http://www.w3.org/1999/xlink"
	 x="0px" y="0px" viewBox="0 0 19.05 22.81" overflow="visible" xml:space="preserve">
<path d="M9.53,2.91c-1.1,0-2,0.9-2,2c0,1.11,0.9,2,2,2s2-0.89,2-2C11.53,3.8,10.63,2.91,9.53,2.91z M9.53,0.91c2.21,0,4,1.79,4,4
	c0,2.21-1.79,4-4,4c-2.21,0-4-1.79-4-4C5.53,2.7,7.32,0.91,9.53,0.91z M4.58,12.3c-0.78,0.78-0.78,2.05,0,2.83l4.95,4.95l4.95-4.95
	c0.78-0.78,0.78-2.05,0-2.83c-0.78-0.78-2.05-0.78-2.83,0l-2.12,2.12L7.4,12.3C6.62,11.52,5.36,11.52,4.58,12.3z M15.89,10.89
	c1.56,1.56,1.56,4.09,0,5.66l-5.66,5.66c-0.39,0.39-1.02,0.39-1.41,0l-5.66-5.66c-1.56-1.56-1.56-4.1,0-5.66
	c1.56-1.56,4.1-1.56,5.66,0l0.71,0.71l0.71-0.71C11.8,9.32,14.33,9.32,15.89,10.89L15.89,10.89z"/>
</svg>
