<?xml version="1.0" encoding="utf-8"?>
<!-- Generator: Adobe Illustrator 25.2.0, SVG Export Plug-In . SVG Version: 6.00 Build 0)  -->
<svg version="1.2" baseProfile="tiny" id="Layer_1" xmlns="http://www.w3.org/2000/svg" xmlns:xlink="http://www.w3.org/1999/xlink"
	 x="0px" y="0px" viewBox="0 0 19.05 20.71" overflow="visible" xml:space="preserve">
<path d="M6.53,12.25v8.1h-2v-8.1c-1.13-0.23-2.14-0.84-2.87-1.74C0.92,9.62,0.53,8.51,0.53,7.35v-6h2v7h2v-7h2v7h2v-7h2v6
	c0,1.15-0.4,2.27-1.13,3.16C8.67,11.41,7.66,12.02,6.53,12.25z M16.53,2.88c-0.83,0.47-2,1.64-2,3.47v5h2V2.88z M18.53,0.35v20h-2
	v-7h-4v-7c0-1.59,0.63-3.12,1.76-4.24S16.94,0.35,18.53,0.35z"/>
</svg>
