<?xml version="1.0" encoding="utf-8"?>
<!-- Generator: Adobe Illustrator 25.2.0, SVG Export Plug-In . SVG Version: 6.00 Build 0)  -->
<svg version="1.2" baseProfile="tiny" id="Layer_1" xmlns="http://www.w3.org/2000/svg" xmlns:xlink="http://www.w3.org/1999/xlink"
	 x="0px" y="0px" viewBox="0 0 21.78 22.81" overflow="visible" xml:space="preserve">
<path d="M11.89,12.76v0.64h-2v-1.5c0-0.27,0.11-0.52,0.29-0.71s0.44-0.29,0.71-0.29c0.28,0,0.56-0.08,0.8-0.23
	c0.24-0.15,0.43-0.37,0.55-0.63c0.12-0.26,0.17-0.54,0.13-0.82s-0.15-0.55-0.33-0.77c-0.18-0.22-0.42-0.38-0.69-0.47
	c-0.27-0.09-0.56-0.1-0.83-0.03S10,8.16,9.8,8.37S9.47,8.83,9.42,9.11L7.46,8.72c0.12-0.61,0.4-1.17,0.81-1.64s0.94-0.81,1.53-1
	c0.59-0.19,1.22-0.23,1.83-0.1c0.61,0.13,1.17,0.42,1.63,0.84s0.8,0.95,0.98,1.54s0.21,1.22,0.07,1.83s-0.43,1.16-0.86,1.61
	S12.48,12.58,11.89,12.76z M9.89,14.4h2v2h-2V14.4z M10.89,19.4c2.12,0,4.16-0.84,5.66-2.34c1.5-1.5,2.34-3.54,2.34-5.66
	c0-2.12-0.84-4.16-2.34-5.66c-1.5-1.5-3.54-2.34-5.66-2.34c-2.12,0-4.16,0.84-5.66,2.34c-1.5,1.5-2.34,3.54-2.34,5.66
	c0,2.12,0.84,4.16,2.34,5.66C6.73,18.56,8.77,19.4,10.89,19.4z M10.89,21.4c-5.52,0-10-4.48-10-10c0-5.52,4.48-10,10-10
	c5.52,0,10,4.48,10,10C20.89,16.93,16.41,21.4,10.89,21.4z"/>
</svg>
