<?xml version="1.0" encoding="utf-8"?>
<!-- Generator: Adobe Illustrator 25.2.0, SVG Export Plug-In . SVG Version: 6.00 Build 0)  -->
<svg version="1.2" baseProfile="tiny" id="Layer_1" xmlns="http://www.w3.org/2000/svg" xmlns:xlink="http://www.w3.org/1999/xlink"
	 x="0px" y="0px" viewBox="0 0 19.05 19.24" overflow="visible" xml:space="preserve">
<path d="M5.53,5.53h8v2h-8V5.53z M2.53,10.53h14v-8h-14V10.53z M10.53,12.53v4h3v2h-8v-2h3v-4h-7c-0.27,0-0.52-0.11-0.71-0.29
	s-0.29-0.44-0.29-0.71v-10c0-0.27,0.11-0.52,0.29-0.71s0.44-0.29,0.71-0.29h16c0.27,0,0.52,0.11,0.71,0.29
	c0.19,0.19,0.29,0.44,0.29,0.71v10c0,0.27-0.11,0.52-0.29,0.71c-0.19,0.19-0.44,0.29-0.71,0.29H10.53z"/>
</svg>
